<svg width="48" height="48" viewBox="0 0 48 48" fill="none" xmlns="http://www.w3.org/2000/svg">
<circle cx="24" cy="24" r="24" fill="black" fill-opacity="0.1"/>
<path d="M17 23C16.4477 23 16 23.4477 16 24C16 24.5523 16.4477 25 17 25V23ZM31 24L31.7071 24.7071C32.0976 24.3166 32.0976 23.6834 31.7071 23.2929L31 24ZM24.7071 16.2929C24.3166 15.9024 23.6834 15.9024 23.2929 16.2929C22.9024 16.6834 22.9024 17.3166 23.2929 17.7071L24.7071 16.2929ZM23.2929 30.2929C22.9024 30.6834 22.9024 31.3166 23.2929 31.7071C23.6834 32.0976 24.3166 32.0976 24.7071 31.7071L23.2929 30.2929ZM17 25H31V23H17V25ZM23.2929 17.7071L30.2929 24.7071L31.7071 23.2929L24.7071 16.2929L23.2929 17.7071ZM30.2929 23.2929L23.2929 30.2929L24.7071 31.7071L31.7071 24.7071L30.2929 23.2929Z" fill="#363636"/>
</svg>
