<svg width="32" height="32" viewBox="0 0 32 32" fill="none" xmlns="http://www.w3.org/2000/svg">
<circle r="16" transform="matrix(-1 0 0 1 16 16)" fill="black" fill-opacity="0.1"/>
<path d="M20.6667 15C21.219 15 21.6667 15.4478 21.6667 16C21.6667 16.5523 21.219 17 20.6667 17V15ZM11.3333 16L10.6262 16.7071C10.2357 16.3166 10.2357 15.6835 10.6262 15.2929L11.3333 16ZM15.2929 10.6263C15.6834 10.2357 16.3166 10.2357 16.7071 10.6263C17.0976 11.0168 17.0976 11.65 16.7071 12.0405L15.2929 10.6263ZM16.7071 19.9596C17.0976 20.3501 17.0976 20.9833 16.7071 21.3738C16.3166 21.7643 15.6834 21.7643 15.2929 21.3738L16.7071 19.9596ZM20.6667 17H11.3333V15H20.6667V17ZM16.7071 12.0405L12.0404 16.7071L10.6262 15.2929L15.2929 10.6263L16.7071 12.0405ZM12.0404 15.2929L16.7071 19.9596L15.2929 21.3738L10.6262 16.7071L12.0404 15.2929Z" fill="#363636"/>
</svg>
