<svg width="48" height="48" viewBox="0 0 48 48" fill="none" xmlns="http://www.w3.org/2000/svg">
<path d="M46 25V35C46 35.5304 45.7893 36.0391 45.4142 36.4142C45.0391 36.7893 44.5304 37 44 37H42C42 38.5913 41.3679 40.1174 40.2426 41.2426C39.1174 42.3679 37.5913 43 36 43C34.4087 43 32.8826 42.3679 31.7574 41.2426C30.6321 40.1174 30 38.5913 30 37H18C18 38.5913 17.3679 40.1174 16.2426 41.2426C15.1174 42.3679 13.5913 43 12 43C10.4087 43 8.88258 42.3679 7.75736 41.2426C6.63214 40.1174 6 38.5913 6 37H4C3.46957 37 2.96086 36.7893 2.58579 36.4142C2.21072 36.0391 2 35.5304 2 35V11C2 9.4087 2.63214 7.88258 3.75736 6.75736C4.88258 5.63214 6.4087 5 8 5H26C27.5913 5 29.1174 5.63214 30.2426 6.75736C31.3679 7.88258 32 9.4087 32 11V15H36C36.9315 15 37.8502 15.2169 38.6833 15.6334C39.5164 16.05 40.2411 16.6548 40.8 17.4L45.6 23.8C45.6585 23.8869 45.7056 23.981 45.74 24.08L45.86 24.3C45.9483 24.523 45.9957 24.7602 46 25ZM14 37C14 36.6044 13.8827 36.2178 13.6629 35.8889C13.4432 35.56 13.1308 35.3036 12.7654 35.1522C12.3999 35.0009 11.9978 34.9613 11.6098 35.0384C11.2219 35.1156 10.8655 35.3061 10.5858 35.5858C10.3061 35.8655 10.1156 36.2218 10.0384 36.6098C9.96126 36.9978 10.0009 37.3999 10.1522 37.7654C10.3036 38.1308 10.56 38.4432 10.8889 38.6629C11.2178 38.8827 11.6044 39 12 39C12.5304 39 13.0391 38.7893 13.4142 38.4142C13.7893 38.0391 14 37.5304 14 37ZM28 11C28 10.4696 27.7893 9.96086 27.4142 9.58579C27.0391 9.21071 26.5304 9 26 9H8C7.46957 9 6.96086 9.21071 6.58579 9.58579C6.21072 9.96086 6 10.4696 6 11V33H7.56001C8.12237 32.3813 8.80783 31.8869 9.57244 31.5487C10.337 31.2104 11.1639 31.0356 12 31.0356C12.8361 31.0356 13.663 31.2104 14.4276 31.5487C15.1922 31.8869 15.8776 32.3813 16.44 33H28V11ZM32 23H40L37.6 19.8C37.4137 19.5516 37.1721 19.35 36.8944 19.2111C36.6167 19.0723 36.3105 19 36 19H32V23ZM38 37C38 36.6044 37.8827 36.2178 37.6629 35.8889C37.4432 35.56 37.1308 35.3036 36.7654 35.1522C36.3999 35.0009 35.9978 34.9613 35.6098 35.0384C35.2219 35.1156 34.8655 35.3061 34.5858 35.5858C34.3061 35.8655 34.1156 36.2218 34.0384 36.6098C33.9613 36.9978 34.0009 37.3999 34.1522 37.7654C34.3036 38.1308 34.56 38.4432 34.8889 38.6629C35.2178 38.8827 35.6044 39 36 39C36.5304 39 37.0391 38.7893 37.4142 38.4142C37.7893 38.0391 38 37.5304 38 37ZM42 27H32V32.56C33.1803 31.5051 34.7297 30.9594 36.3106 31.0418C37.8915 31.1243 39.3758 31.8281 40.44 33H42V27Z" fill="url(#paint0_linear_7_329)"/>
<defs>
<linearGradient id="paint0_linear_7_329" x1="24" y1="5" x2="24" y2="43" gradientUnits="userSpaceOnUse">
<stop stop-color="#F3F122"/>
<stop offset="1" stop-color="#CDCB15"/>
</linearGradient>
</defs>
</svg>
