<svg width="18" height="19" viewBox="0 0 18 19" fill="none" xmlns="http://www.w3.org/2000/svg">
<path d="M17.25 9.875V13.625C17.25 13.8239 17.171 14.0147 17.0303 14.1553C16.8897 14.296 16.6989 14.375 16.5 14.375H15.75C15.75 14.9717 15.5129 15.544 15.091 15.966C14.669 16.3879 14.0967 16.625 13.5 16.625C12.9033 16.625 12.331 16.3879 11.909 15.966C11.4871 15.544 11.25 14.9717 11.25 14.375H6.75C6.75 14.9717 6.51295 15.544 6.09099 15.966C5.66903 16.3879 5.09674 16.625 4.5 16.625C3.90326 16.625 3.33097 16.3879 2.90901 15.966C2.48705 15.544 2.25 14.9717 2.25 14.375H1.5C1.30109 14.375 1.11032 14.296 0.969669 14.1553C0.829018 14.0147 0.75 13.8239 0.75 13.625V4.625C0.75 4.02826 0.987053 3.45597 1.40901 3.03401C1.83097 2.61205 2.40326 2.375 3 2.375H9.75C10.3467 2.375 10.919 2.61205 11.341 3.03401C11.7629 3.45597 12 4.02826 12 4.625V6.125H13.5C13.8493 6.125 14.1938 6.20633 14.5062 6.36254C14.8187 6.51875 15.0904 6.74556 15.3 7.025L17.1 9.425C17.1219 9.4576 17.1396 9.49289 17.1525 9.53L17.1975 9.6125C17.2306 9.69614 17.2484 9.78506 17.25 9.875ZM5.25 14.375C5.25 14.2267 5.20601 14.0817 5.1236 13.9583C5.04119 13.835 4.92406 13.7389 4.78701 13.6821C4.64997 13.6253 4.49917 13.6105 4.35368 13.6394C4.2082 13.6684 4.07456 13.7398 3.96967 13.8447C3.86478 13.9496 3.79335 14.0832 3.76441 14.2287C3.73547 14.3742 3.75032 14.525 3.80709 14.662C3.86386 14.7991 3.95998 14.9162 4.08332 14.9986C4.20666 15.081 4.35166 15.125 4.5 15.125C4.69891 15.125 4.88968 15.046 5.03033 14.9053C5.17098 14.7647 5.25 14.5739 5.25 14.375ZM10.5 4.625C10.5 4.42609 10.421 4.23532 10.2803 4.09467C10.1397 3.95402 9.94891 3.875 9.75 3.875H3C2.80109 3.875 2.61032 3.95402 2.46967 4.09467C2.32902 4.23532 2.25 4.42609 2.25 4.625V12.875H2.835C3.04589 12.643 3.30294 12.4576 3.58966 12.3307C3.87639 12.2039 4.18646 12.1384 4.5 12.1384C4.81354 12.1384 5.12361 12.2039 5.41034 12.3307C5.69706 12.4576 5.95411 12.643 6.165 12.875H10.5V4.625ZM12 9.125H15L14.1 7.925C14.0301 7.83185 13.9396 7.75625 13.8354 7.70418C13.7313 7.65211 13.6164 7.625 13.5 7.625H12V9.125ZM14.25 14.375C14.25 14.2267 14.206 14.0817 14.1236 13.9583C14.0412 13.835 13.9241 13.7389 13.787 13.6821C13.65 13.6253 13.4992 13.6105 13.3537 13.6394C13.2082 13.6684 13.0746 13.7398 12.9697 13.8447C12.8648 13.9496 12.7933 14.0832 12.7644 14.2287C12.7355 14.3742 12.7503 14.525 12.8071 14.662C12.8639 14.7991 12.96 14.9162 13.0833 14.9986C13.2067 15.081 13.3517 15.125 13.5 15.125C13.6989 15.125 13.8897 15.046 14.0303 14.9053C14.171 14.7647 14.25 14.5739 14.25 14.375ZM15.75 10.625H12V12.71C12.4426 12.3144 13.0236 12.1098 13.6165 12.1407C14.2093 12.1716 14.7659 12.4355 15.165 12.875H15.75V10.625Z" fill="#363636"/>
</svg>
