<svg width="40" height="40" viewBox="0 0 40 40" fill="none" xmlns="http://www.w3.org/2000/svg">
<circle cx="20" cy="20" r="20" fill="#F42F1A"/>
<path d="M24.167 15H28.3337V16.6666H26.667V27.5C26.667 27.721 26.5792 27.9329 26.4229 28.0892C26.2666 28.2455 26.0547 28.3333 25.8337 28.3333H14.167C13.946 28.3333 13.734 28.2455 13.5777 28.0892C13.4215 27.9329 13.3337 27.721 13.3337 27.5V16.6666H11.667V15H15.8337V12.5C15.8337 12.2789 15.9215 12.067 16.0777 11.9107C16.234 11.7544 16.446 11.6666 16.667 11.6666H23.3337C23.5547 11.6666 23.7666 11.7544 23.9229 11.9107C24.0792 12.067 24.167 12.2789 24.167 12.5V15ZM17.5003 19.1666V24.1666H19.167V19.1666H17.5003ZM20.8337 19.1666V24.1666H22.5003V19.1666H20.8337ZM17.5003 13.3333V15H22.5003V13.3333H17.5003Z" fill="white"/>
</svg>
