<svg width="64" height="64" viewBox="0 0 64 64" fill="none" xmlns="http://www.w3.org/2000/svg">
<rect width="64" height="64" rx="16" fill="#F3F122"/>
<path d="M43.6665 41.3334V43.6667H20.3332V41.3334H21.4998V33.449C20.7816 32.9696 20.1928 32.3203 19.7858 31.5588C19.3788 30.7972 19.166 29.9469 19.1665 29.0834C19.1665 28.1185 19.4278 27.1887 19.905 26.3965L23.069 20.9167C23.1714 20.7394 23.3187 20.5921 23.496 20.4897C23.6734 20.3873 23.8745 20.3334 24.0793 20.3334H39.9215C40.1263 20.3334 40.3275 20.3873 40.5048 20.4897C40.6822 20.5921 40.8294 20.7394 40.9318 20.9167L44.0842 26.379C44.7802 27.5351 45.0039 28.9148 44.7088 30.2315C44.4137 31.5482 43.6226 32.7006 42.4998 33.449V41.3334H43.6665ZM24.7537 22.6667L21.9152 27.5819C21.6393 28.2634 21.6311 29.0239 21.892 29.7113C22.1529 30.3986 22.6638 30.962 23.3224 31.2888C23.981 31.6156 24.7387 31.6816 25.4438 31.4737C26.149 31.2657 26.7496 30.7991 27.1255 30.1672C27.5163 29.1907 28.8988 29.1907 29.2908 30.1672C29.507 30.709 29.8807 31.1736 30.3636 31.5008C30.8465 31.8281 31.4165 32.003 31.9998 32.003C32.5832 32.003 33.1531 31.8281 33.6361 31.5008C34.119 31.1736 34.4927 30.709 34.7088 30.1672C35.0997 29.1907 36.4822 29.1907 36.8742 30.1672C37.0256 30.5399 37.2524 30.8772 37.5405 31.158C37.8286 31.4388 38.1716 31.657 38.548 31.7988C38.9245 31.9406 39.3262 32.0031 39.7279 31.9822C40.1296 31.9613 40.5227 31.8575 40.8824 31.6774C41.2421 31.4972 41.5606 31.2447 41.818 30.9355C42.0753 30.6263 42.266 30.2673 42.3779 29.8809C42.4898 29.4945 42.5206 29.0891 42.4683 28.6903C42.416 28.2914 42.2817 27.9077 42.074 27.5632L39.2448 22.6667H24.7548H24.7537Z" fill="#363636"/>
</svg>
