<svg width="27" height="28" viewBox="0 0 27 28" fill="none" xmlns="http://www.w3.org/2000/svg">
<g clip-path="url(#clip0_23_202)">
<path fill-rule="evenodd" clip-rule="evenodd" d="M21.8795 15.5972C21.3273 17.1599 19.8114 21.5006 22.3696 22.101C23.0152 22.1994 23.6754 22.1003 24.2637 21.8167C24.5221 21.7199 24.7981 21.6792 25.0734 21.6974C25.3486 21.7155 25.6169 21.7921 25.8603 21.922C26.1037 22.0519 26.3167 22.2321 26.485 22.4507C26.6533 22.6693 26.7732 22.9213 26.8366 23.1898C27.7049 25.9671 24.9743 27.6253 22.5117 27.4995C19.9388 27.6098 18.0128 25.7473 17.3814 23.3336C16.0868 19.5132 18.1394 15.2672 19.5753 11.8259C20.8536 8.77903 21.9742 5.95356 21.0594 5.65378C19.0231 5.00684 15.2977 13.2937 14.1934 14.6195C13.4518 15.518 12.4888 16.3871 11.3526 16.3871C9.31634 16.3871 8.62207 14.7616 8.62207 12.646C8.70201 10.9584 8.94519 9.28262 9.3482 7.64198C9.50584 6.78919 9.66348 5.90536 8.92183 5.65296C6.79 4.9423 -0.265485 24.9428 7.3103 21.7856C7.56973 21.6895 7.84668 21.6499 8.12267 21.6692C8.39865 21.6886 8.66734 21.7666 8.91081 21.898C9.15429 22.0294 9.36695 22.2112 9.53462 22.4313C9.7023 22.6514 9.82113 22.9047 9.8832 23.1743C10.9883 26.6941 6.22151 27.894 4.23261 27.3573C3.42194 27.1324 2.67672 26.7171 2.05899 26.1459C1.44126 25.5747 0.968885 24.8643 0.681181 24.0736C-0.344714 21.5324 -0.0294312 18.1384 0.44431 15.4861C0.52599 15.0777 0.601952 14.6497 0.6967 14.2388C1.18332 12.167 1.82718 10.1354 2.6227 8.16149C2.92247 7.38794 3.26961 6.61439 3.63308 5.88821C5.10495 2.92225 6.88474 0.506836 10.0735 0.506836C15.0927 0.506836 11.1942 9.44149 12.6783 9.77313C14.1624 10.1203 16.8292 1.89629 20.0025 0.728201C20.5939 0.54978 21.2172 0.50254 21.8288 0.589775C22.4404 0.677009 23.0256 0.896619 23.5436 1.23329C24.0616 1.56996 24.4999 2.01558 24.828 2.53907C25.1561 3.06257 25.366 3.65134 25.4432 4.26432C26.126 6.74181 22.8743 12.7595 21.8795 15.5972Z" fill="#363636"/>
</g>
<defs>
<clipPath id="clip0_23_202">
<rect width="27" height="27" fill="white" transform="translate(0 0.506836)"/>
</clipPath>
</defs>
</svg>
