<svg width="98" height="98" viewBox="0 0 98 98" fill="none" xmlns="http://www.w3.org/2000/svg">
<path d="M14.2488 14.2488C33.2446 -4.74961 64.1578 -4.74961 83.1562 14.2488C102.155 33.2473 102.155 64.1578 83.1562 83.1562C64.1578 102.155 33.2473 102.155 14.2488 83.1562C-4.74961 64.1578 -4.74961 33.2473 14.2488 14.2488Z" fill="#F3F122"/>
<g clip-path="url(#clip0_33_2638)">
<path d="M64.5439 48.5438L41.7801 63.7196C41.6184 63.8272 41.4305 63.889 41.2365 63.8983C41.0425 63.9075 40.8496 63.864 40.6783 63.7723C40.5071 63.6807 40.3639 63.5442 40.2641 63.3776C40.1642 63.211 40.1114 63.0204 40.1113 62.8262V32.4745C40.1114 32.2803 40.1642 32.0897 40.2641 31.9231C40.3639 31.7564 40.5071 31.62 40.6783 31.5283C40.8496 31.4367 41.0425 31.3931 41.2365 31.4024C41.4305 31.4117 41.6184 31.4734 41.7801 31.5811L64.5439 46.7569C64.6909 46.855 64.8115 46.9878 64.8949 47.1437C64.9783 47.2995 65.022 47.4736 65.022 47.6503C65.022 47.8271 64.9783 48.0012 64.8949 48.157C64.8115 48.3129 64.6909 48.4457 64.5439 48.5438Z" fill="#363636"/>
</g>
<defs>
<clipPath id="clip0_33_2638">
<rect width="51.5455" height="51.5455" fill="white" transform="translate(22.9299 21.8777)"/>
</clipPath>
</defs>
</svg>
