<svg width="46" height="46" viewBox="0 0 46 46" fill="none" xmlns="http://www.w3.org/2000/svg">
<circle cx="23" cy="23" r="23" fill="black" fill-opacity="0.06"/>
<g clip-path="url(#clip0_23_210)">
<path d="M15.6071 15.6091H30.3928C30.6106 15.6091 30.8196 15.6957 30.9736 15.8497C31.1277 16.0038 31.2142 16.2127 31.2142 16.4306V29.5734C31.2142 29.7913 31.1277 30.0002 30.9736 30.1542C30.8196 30.3083 30.6106 30.3948 30.3928 30.3948H15.6071C15.3892 30.3948 15.1803 30.3083 15.0262 30.1542C14.8722 30.0002 14.7856 29.7913 14.7856 29.5734V16.4306C14.7856 16.2127 14.8722 16.0038 15.0262 15.8497C15.1803 15.6957 15.3892 15.6091 15.6071 15.6091ZM23.0492 22.7416L17.7822 18.2689L16.7185 19.5208L23.0599 24.9052L29.2871 19.5167L28.2127 18.2738L23.05 22.7416H23.0492Z" fill="#363636"/>
</g>
<defs>
<clipPath id="clip0_23_210">
<rect width="19.7143" height="19.7143" fill="white" transform="translate(13.1428 13.1448)"/>
</clipPath>
</defs>
</svg>
