<svg width="42" height="42" viewBox="0 0 42 42" fill="none" xmlns="http://www.w3.org/2000/svg">
<circle cx="21" cy="21" r="21" fill="#F3F122"/>
<path d="M29.2458 29.1605L25.5938 25.538C27.0114 23.7705 27.6979 21.527 27.5121 19.2688C27.3264 17.0107 26.2825 14.9095 24.5951 13.3974C22.9078 11.8853 20.7052 11.0771 18.4402 11.1391C16.1753 11.201 14.0202 12.1284 12.418 13.7306C10.8159 15.3327 9.88848 17.4879 9.8265 19.7528C9.76452 22.0177 10.5727 24.2203 12.0848 25.9077C13.597 27.5951 15.6981 28.6389 17.9563 28.8247C20.2144 29.0104 22.4579 28.3239 24.2255 26.9063L27.848 30.5288C27.9395 30.6211 28.0484 30.6943 28.1683 30.7443C28.2883 30.7943 28.4169 30.82 28.5469 30.82C28.6768 30.82 28.8055 30.7943 28.9255 30.7443C29.0454 30.6943 29.1543 30.6211 29.2458 30.5288C29.4232 30.3453 29.5224 30.1 29.5224 29.8447C29.5224 29.5894 29.4232 29.3441 29.2458 29.1605ZM18.7031 26.9063C17.3403 26.9063 16.0081 26.5022 14.8749 25.745C13.7417 24.9879 12.8586 23.9117 12.337 22.6526C11.8155 21.3935 11.679 20.008 11.9449 18.6714C12.2108 17.3347 12.8671 16.107 13.8307 15.1433C14.7944 14.1796 16.0222 13.5233 17.3588 13.2575C18.6955 12.9916 20.081 13.128 21.3401 13.6496C22.5992 14.1711 23.6753 15.0543 24.4325 16.1875C25.1896 17.3206 25.5938 18.6529 25.5938 20.0157C25.5938 21.8432 24.8678 23.5959 23.5755 24.8881C22.2833 26.1803 20.5306 26.9063 18.7031 26.9063Z" fill="#363636"/>
</svg>
