<svg width="46" height="46" viewBox="0 0 46 46" fill="none" xmlns="http://www.w3.org/2000/svg">
<circle cx="23" cy="23" r="23" fill="white" fill-opacity="0.16"/>
<path d="M30.5 26.6833V29.63C30.5001 29.841 30.4202 30.0441 30.2763 30.1985C30.1325 30.3528 29.9355 30.4469 29.725 30.4617C29.3608 30.4867 29.0633 30.5 28.8333 30.5C21.4692 30.5 15.5 24.5308 15.5 17.1667C15.5 16.9367 15.5125 16.6392 15.5383 16.275C15.5531 16.0645 15.6472 15.8675 15.8015 15.7237C15.9559 15.5798 16.159 15.4999 16.37 15.5H19.3167C19.42 15.4999 19.5197 15.5382 19.5964 15.6075C19.6731 15.6768 19.7213 15.7722 19.7317 15.875C19.7508 16.0667 19.7683 16.2192 19.785 16.335C19.9506 17.4908 20.29 18.6149 20.7917 19.6692C20.8708 19.8358 20.8192 20.035 20.6692 20.1417L18.8708 21.4267C19.9704 23.9887 22.0121 26.0305 24.5742 27.13L25.8575 25.335C25.91 25.2617 25.9865 25.2091 26.0737 25.1864C26.161 25.1637 26.2535 25.1723 26.335 25.2108C27.3892 25.7116 28.513 26.0501 29.6683 26.215C29.7842 26.2317 29.9367 26.25 30.1267 26.2683C30.2294 26.2789 30.3245 26.3271 30.3936 26.4038C30.4628 26.4805 30.501 26.5801 30.5008 26.6833H30.5Z" fill="white"/>
</svg>
