<svg width="62" height="62" viewBox="0 0 62 62" fill="none" xmlns="http://www.w3.org/2000/svg">
<circle cx="31" cy="31" r="29.5" fill="#363636" stroke="white" stroke-width="3"/>
<path d="M21.7999 24.2L25.9999 27L30.1859 21.14C30.2784 21.0104 30.4005 20.9047 30.5421 20.8318C30.6837 20.7589 30.8406 20.7209 30.9999 20.7209C31.1591 20.7209 31.3161 20.7589 31.4577 20.8318C31.5993 20.9047 31.7214 21.0104 31.8139 21.14L35.9999 27L40.1999 24.2C40.3588 24.0943 40.5447 24.0362 40.7356 24.0328C40.9265 24.0293 41.1144 24.0805 41.2771 24.1804C41.4398 24.2803 41.5705 24.4247 41.6537 24.5966C41.737 24.7684 41.7693 24.9604 41.7469 25.15L40.1039 39.117C40.0752 39.3603 39.9583 39.5845 39.7753 39.7473C39.5922 39.9101 39.3558 40 39.1109 40H22.8889C22.644 40 22.4075 39.9101 22.2245 39.7473C22.0415 39.5845 21.9245 39.3603 21.8959 39.117L20.2529 25.149C20.2307 24.9595 20.2632 24.7676 20.3465 24.5959C20.4298 24.4243 20.5605 24.2801 20.7232 24.1803C20.8858 24.0805 21.0736 24.0293 21.2644 24.0328C21.4552 24.0363 21.641 24.0944 21.7999 24.2ZM30.9999 34C31.5303 34 32.039 33.7893 32.4141 33.4142C32.7892 33.0392 32.9999 32.5305 32.9999 32C32.9999 31.4696 32.7892 30.9609 32.4141 30.5858C32.039 30.2107 31.5303 30 30.9999 30C30.4695 30 29.9607 30.2107 29.5857 30.5858C29.2106 30.9609 28.9999 31.4696 28.9999 32C28.9999 32.5305 29.2106 33.0392 29.5857 33.4142C29.9607 33.7893 30.4695 34 30.9999 34Z" fill="white"/>
</svg>
