<svg width="62" height="62" viewBox="0 0 62 62" fill="none" xmlns="http://www.w3.org/2000/svg">
<circle cx="31" cy="31" r="29.5" fill="#363636" stroke="white" stroke-width="3"/>
<path d="M20.1809 31C21.1209 25.88 25.6079 22 30.9999 22C36.3919 22 40.8779 25.88 41.8189 31C40.8789 36.12 36.3919 40 30.9999 40C25.6079 40 21.1219 36.12 20.1809 31ZM30.9999 36C32.326 36 33.5978 35.4732 34.5354 34.5355C35.4731 33.5979 35.9999 32.3261 35.9999 31C35.9999 29.6739 35.4731 28.4021 34.5354 27.4645C33.5978 26.5268 32.326 26 30.9999 26C29.6738 26 28.4021 26.5268 27.4644 27.4645C26.5267 28.4021 25.9999 29.6739 25.9999 31C25.9999 32.3261 26.5267 33.5979 27.4644 34.5355C28.4021 35.4732 29.6738 36 30.9999 36ZM30.9999 34C30.2043 34 29.4412 33.6839 28.8786 33.1213C28.316 32.5587 27.9999 31.7956 27.9999 31C27.9999 30.2044 28.316 29.4413 28.8786 28.8787C29.4412 28.3161 30.2043 28 30.9999 28C31.7956 28 32.5586 28.3161 33.1212 28.8787C33.6838 29.4413 33.9999 30.2044 33.9999 31C33.9999 31.7956 33.6838 32.5587 33.1212 33.1213C32.5586 33.6839 31.7956 34 30.9999 34Z" fill="white"/>
</svg>
