<svg width="20" height="20" viewBox="0 0 20 20" fill="none" xmlns="http://www.w3.org/2000/svg">
<path d="M6.04414 15.4117L6.64747 15.7642C7.66492 16.3576 8.82213 16.6692 9.99997 16.6667C11.3185 16.6667 12.6074 16.2758 13.7038 15.5432C14.8001 14.8107 15.6546 13.7695 16.1592 12.5513C16.6638 11.3331 16.7958 9.99269 16.5385 8.69948C16.2813 7.40627 15.6464 6.21839 14.714 5.28604C13.7817 4.35369 12.5938 3.71875 11.3006 3.46151C10.0074 3.20428 8.66692 3.3363 7.44875 3.84088C6.23057 4.34547 5.18938 5.19995 4.45684 6.29628C3.7243 7.39261 3.3333 8.68154 3.3333 10.0001C3.3333 11.1967 3.64747 12.3442 4.23664 13.3534L4.5883 13.9567L4.04414 15.9576L6.04414 15.4117ZM1.66997 18.3334L2.79664 14.1934C2.05425 12.9208 1.66422 11.4734 1.66664 10.0001C1.66664 5.39758 5.39747 1.66675 9.99997 1.66675C14.6025 1.66675 18.3333 5.39758 18.3333 10.0001C18.3333 14.6026 14.6025 18.3334 9.99997 18.3334C8.52729 18.3358 7.08052 17.9461 5.8083 17.2042L1.66997 18.3334ZM6.99247 6.09008C7.10414 6.08175 7.21664 6.08175 7.3283 6.08675C7.3733 6.09008 7.4183 6.09508 7.4633 6.10008C7.5958 6.11508 7.74164 6.19591 7.7908 6.30758C8.03914 6.87091 8.2808 7.43841 8.51414 8.00758C8.5658 8.13425 8.53497 8.29675 8.43664 8.45508C8.36901 8.56215 8.29586 8.66562 8.21747 8.76508C8.1233 8.88591 7.9208 9.10758 7.9208 9.10758C7.9208 9.10758 7.8383 9.20591 7.86997 9.32841C7.88164 9.37508 7.91997 9.44258 7.95497 9.49925L8.00414 9.57841C8.21747 9.93425 8.50414 10.2951 8.85414 10.6351C8.95414 10.7317 9.05164 10.8309 9.15664 10.9234C9.54664 11.2676 9.9883 11.5484 10.465 11.7567L10.4691 11.7584C10.54 11.7892 10.5758 11.8059 10.6791 11.8501C10.7308 11.8717 10.7841 11.8909 10.8383 11.9051C10.8943 11.9193 10.9532 11.9167 11.0077 11.8974C11.0621 11.8781 11.1096 11.8431 11.1441 11.7967C11.7475 11.0659 11.8025 11.0184 11.8075 11.0184V11.0201C11.8494 10.981 11.8992 10.9513 11.9535 10.9331C12.0078 10.9148 12.0655 10.9084 12.1225 10.9142C12.1725 10.9176 12.2233 10.9267 12.27 10.9476C12.7125 11.1501 13.4366 11.4659 13.4366 11.4659L13.9216 11.6834C14.0033 11.7226 14.0775 11.8151 14.08 11.9042C14.0833 11.9601 14.0883 12.0501 14.0691 12.2151C14.0425 12.4309 13.9775 12.6901 13.9125 12.8259C13.868 12.9186 13.8089 13.0036 13.7375 13.0776C13.6534 13.1659 13.5613 13.2462 13.4625 13.3176C13.4283 13.3433 13.3935 13.3683 13.3583 13.3926C13.2547 13.4583 13.1482 13.5195 13.0391 13.5759C12.8246 13.6899 12.5876 13.7553 12.345 13.7676C12.1908 13.7759 12.0366 13.7876 11.8816 13.7792C11.875 13.7792 11.4083 13.7067 11.4083 13.7067C10.2235 13.3951 9.1278 12.8113 8.2083 12.0017C8.01997 11.8359 7.8458 11.6576 7.66747 11.4801C6.9258 10.7426 6.3658 9.94675 6.0258 9.19508C5.85178 8.82616 5.75778 8.42458 5.74997 8.01675C5.74654 7.51079 5.91193 7.01814 6.21997 6.61675C6.2808 6.53841 6.3383 6.45675 6.43747 6.36258C6.5433 6.26258 6.60997 6.20925 6.68247 6.17258C6.77887 6.12427 6.88402 6.09593 6.99164 6.08925L6.99247 6.09008Z" fill="#ECECEC"/>
</svg>
