<svg width="56" height="56" viewBox="0 0 56 56" fill="none" xmlns="http://www.w3.org/2000/svg">
<rect width="56" height="56" rx="28" fill="#02C458"/>
<path d="M15.366 40.6389L17.0748 34.3599C15.9489 32.4297 15.3573 30.2345 15.361 28C15.361 21.0195 21.0194 15.3611 27.9999 15.3611C34.9803 15.3611 40.6388 21.0195 40.6388 28C40.6388 34.9804 34.9803 40.6389 27.9999 40.6389C25.7663 40.6425 23.572 40.0514 21.6425 38.9263L15.366 40.6389ZM23.4385 22.0698C23.2753 22.0799 23.1158 22.1229 22.9696 22.1962C22.8325 22.2738 22.7073 22.3709 22.598 22.4844C22.4463 22.6272 22.3604 22.751 22.2681 22.8711C21.801 23.479 21.5497 24.2253 21.554 24.9919C21.5566 25.6112 21.7183 26.2141 21.9711 26.7778C22.488 27.9178 23.3386 29.1248 24.4622 30.2434C24.7327 30.5126 24.9969 30.7831 25.2812 31.0346C26.6758 32.2624 28.3376 33.1478 30.1346 33.6205L30.8537 33.7304C31.0875 33.7431 31.3214 33.7254 31.5564 33.714C31.9245 33.695 32.284 33.5953 32.6093 33.4221C32.8191 33.3108 32.9177 33.2552 33.0933 33.144C33.0933 33.144 33.1477 33.1086 33.2513 33.0302C33.4219 32.9039 33.5269 32.8141 33.6684 32.6662C33.7733 32.5576 33.8643 32.4299 33.9338 32.2846C34.0324 32.0785 34.131 31.6855 34.1714 31.3581C34.2018 31.1079 34.1929 30.9714 34.1891 30.8867C34.1841 30.7515 34.0716 30.6112 33.949 30.5518L33.2134 30.2219C33.2134 30.2219 32.1138 29.7429 31.4427 29.437C31.3719 29.4062 31.2961 29.3886 31.219 29.3852C31.1325 29.3763 31.0451 29.386 30.9627 29.4137C30.8803 29.4414 30.8048 29.4864 30.7412 29.5457V29.5432C30.7349 29.5432 30.6502 29.6152 29.7364 30.7224C29.684 30.7929 29.6118 30.8461 29.5289 30.8754C29.4461 30.9047 29.3564 30.9086 29.2713 30.8867C29.189 30.8647 29.1083 30.8368 29.0299 30.8033C28.8732 30.7376 28.8189 30.7123 28.7114 30.6655L28.7051 30.663C27.9821 30.3473 27.3126 29.9209 26.7208 29.3991C26.5616 29.2601 26.4137 29.1084 26.262 28.9618C25.7648 28.4856 25.3314 27.9469 24.9729 27.3592L24.8983 27.2391C24.8447 27.1584 24.8014 27.0714 24.7694 26.98C24.7213 26.7942 24.8465 26.6451 24.8465 26.6451C24.8465 26.6451 25.1536 26.3089 25.2964 26.1269C25.4153 25.9756 25.5263 25.8183 25.6288 25.6555C25.7779 25.4153 25.8247 25.1689 25.7464 24.978C25.3925 24.1135 25.0259 23.2528 24.6493 22.3984C24.5747 22.2291 24.3535 22.1077 24.1526 22.0837C24.0843 22.0761 24.0161 22.0685 23.9478 22.0635C23.7781 22.0551 23.608 22.0567 23.4385 22.0685V22.0698Z" fill="white"/>
</svg>
