<svg width="56" height="56" viewBox="0 0 56 56" fill="none" xmlns="http://www.w3.org/2000/svg">
<rect width="56" height="56" rx="28" fill="#02C458"/>
<g clip-path="url(#clip0_194_1258)">
<path d="M15.3662 40.6389L17.0749 34.3599C15.949 32.4297 15.3574 30.2345 15.3611 28C15.3611 21.0195 21.0195 15.3611 28 15.3611C34.9804 15.3611 40.6389 21.0195 40.6389 28C40.6389 34.9804 34.9804 40.6389 28 40.6389C25.7664 40.6425 23.5722 40.0514 21.6426 38.9263L15.3662 40.6389ZM23.4386 22.0698C23.2754 22.0799 23.1159 22.1229 22.9697 22.1962C22.8326 22.2738 22.7074 22.3709 22.5981 22.4844C22.4465 22.6272 22.3605 22.751 22.2683 22.8711C21.8011 23.479 21.5499 24.2253 21.5542 24.9919C21.5567 25.6112 21.7185 26.2141 21.9712 26.7778C22.4882 27.9178 23.3388 29.1248 24.4624 30.2434C24.7328 30.5126 24.997 30.7831 25.2814 31.0346C26.6759 32.2624 28.3378 33.1478 30.1347 33.6205L30.8538 33.7304C31.0877 33.7431 31.3215 33.7254 31.5566 33.714C31.9247 33.695 32.2841 33.5953 32.6094 33.4221C32.8192 33.3108 32.9178 33.2552 33.0935 33.144C33.0935 33.144 33.1478 33.1086 33.2514 33.0302C33.4221 32.9039 33.527 32.8141 33.6685 32.6662C33.7734 32.5576 33.8644 32.4299 33.9339 32.2846C34.0325 32.0785 34.1311 31.6855 34.1716 31.3581C34.2019 31.1079 34.193 30.9714 34.1893 30.8867C34.1842 30.7515 34.0717 30.6112 33.9491 30.5518L33.2135 30.2219C33.2135 30.2219 32.1139 29.7429 31.4428 29.437C31.3721 29.4062 31.2962 29.3886 31.2191 29.3852C31.1326 29.3763 31.0453 29.386 30.9629 29.4137C30.8805 29.4414 30.8049 29.4864 30.7414 29.5457V29.5432C30.735 29.5432 30.6504 29.6152 29.7366 30.7224C29.6841 30.7929 29.6119 30.8461 29.529 30.8754C29.4462 30.9047 29.3565 30.9086 29.2715 30.8867C29.1891 30.8647 29.1084 30.8368 29.0301 30.8033C28.8733 30.7376 28.819 30.7123 28.7116 30.6655L28.7052 30.663C27.9822 30.3473 27.3127 29.9209 26.7209 29.3991C26.5617 29.2601 26.4138 29.1084 26.2621 28.9618C25.7649 28.4856 25.3316 27.9469 24.973 27.3592L24.8984 27.2391C24.8448 27.1584 24.8015 27.0714 24.7695 26.98C24.7215 26.7942 24.8466 26.6451 24.8466 26.6451C24.8466 26.6451 25.1537 26.3089 25.2965 26.1269C25.4154 25.9756 25.5264 25.8183 25.6289 25.6555C25.7781 25.4153 25.8248 25.1689 25.7465 24.978C25.3926 24.1135 25.0261 23.2528 24.6494 22.3984C24.5748 22.2291 24.3537 22.1077 24.1527 22.0837C24.0845 22.0761 24.0162 22.0685 23.948 22.0635C23.7782 22.0551 23.6081 22.0567 23.4386 22.0685V22.0698Z" fill="white"/>
</g>
<defs>
<clipPath id="clip0_194_1258">
<rect width="30.3333" height="30.3333" fill="white" transform="translate(12.8333 12.8333)"/>
</clipPath>
</defs>
</svg>
