<svg width="46" height="46" viewBox="0 0 46 46" fill="none" xmlns="http://www.w3.org/2000/svg">
<circle cx="23" cy="23" r="23" fill="white" fill-opacity="0.16"/>
<path d="M14.6698 31.3333L15.7965 27.1933C15.0541 25.9207 14.6641 24.4733 14.6665 23C14.6665 18.3975 18.3973 14.6666 22.9998 14.6666C27.6023 14.6666 31.3332 18.3975 31.3332 23C31.3332 27.6025 27.6023 31.3333 22.9998 31.3333C21.5272 31.3357 20.0804 30.9459 18.8082 30.2041L14.6698 31.3333ZM19.9923 19.09C19.8847 19.0966 19.7796 19.125 19.6832 19.1733C19.5928 19.2245 19.5103 19.2885 19.4382 19.3633C19.3382 19.4575 19.2815 19.5391 19.2207 19.6183C18.9127 20.0191 18.747 20.5111 18.7498 21.0166C18.7515 21.425 18.8582 21.8225 19.0248 22.1941C19.3657 22.9458 19.9265 23.7416 20.6673 24.4791C20.8457 24.6566 21.0198 24.835 21.2073 25.0008C22.1268 25.8103 23.2226 26.3942 24.4073 26.7058L24.8815 26.7783C25.0357 26.7866 25.1898 26.775 25.3448 26.7675C25.5875 26.7549 25.8245 26.6892 26.039 26.575C26.1773 26.5016 26.2424 26.465 26.3582 26.3916C26.3582 26.3916 26.394 26.3683 26.4624 26.3166C26.5749 26.2333 26.644 26.1741 26.7374 26.0766C26.8065 26.005 26.8665 25.9208 26.9123 25.825C26.9773 25.6891 27.0423 25.43 27.069 25.2141C27.089 25.0491 27.0832 24.9591 27.0807 24.9033C27.0773 24.8141 27.0032 24.7216 26.9224 24.6825L26.4373 24.465C26.4373 24.465 25.7123 24.1491 25.2698 23.9475C25.2232 23.9271 25.1732 23.9155 25.1223 23.9133C25.0653 23.9074 25.0077 23.9139 24.9534 23.9321C24.8991 23.9504 24.8493 23.98 24.8073 24.0191V24.0175C24.8032 24.0175 24.7473 24.065 24.1448 24.795C24.1103 24.8414 24.0626 24.8765 24.008 24.8958C23.9534 24.9151 23.8943 24.9177 23.8382 24.9033C23.7839 24.8888 23.7307 24.8704 23.679 24.8483C23.5757 24.805 23.5398 24.7883 23.469 24.7575L23.4648 24.7558C22.9881 24.5476 22.5467 24.2665 22.1565 23.9225C22.0515 23.8308 21.954 23.7308 21.854 23.6341C21.5262 23.3202 21.2404 22.965 21.004 22.5775L20.9548 22.4983C20.9195 22.4451 20.891 22.3877 20.8698 22.3275C20.8382 22.205 20.9207 22.1066 20.9207 22.1066C20.9207 22.1066 21.1232 21.885 21.2173 21.765C21.2958 21.6652 21.3689 21.5615 21.4365 21.4541C21.5348 21.2958 21.5657 21.1333 21.514 21.0075C21.2807 20.4375 21.039 19.87 20.7907 19.3066C20.7415 19.195 20.5957 19.115 20.4632 19.0991C20.4182 19.0941 20.3732 19.0891 20.3282 19.0858C20.2163 19.0802 20.1041 19.0813 19.9923 19.0891V19.09Z" fill="white"/>
</svg>
